<svg id="jbl-color" xmlns="http://www.w3.org/2000/svg" width="36.78" height="36.78" viewBox="0 0 36.78 36.78">
  <path id="Trazado_62437" data-name="Trazado 62437" d="M0,0H36.78V36.78H0Z" fill="#f30" fill-rule="evenodd"/>
  <path id="Trazado_62438" data-name="Trazado 62438" d="M38.732,588.459a1.919,1.919,0,0,0,.543.274,1.974,1.974,0,0,0,1.181,0A1.939,1.939,0,0,0,41,585.315a1.985,1.985,0,0,0-.546-.275,1.96,1.96,0,0,0-1.184,0,1.925,1.925,0,0,0-.978.712,1.947,1.947,0,0,0-.365,1.139,1.931,1.931,0,0,0,.8,1.568Zm4.2-11.059H36.8l3.072,6.96,3.059-6.96Z" transform="translate(-36.259 -568.905)" fill="#f5f5f5"/>
  <path id="Trazado_62439" data-name="Trazado 62439" d="M151.286,593.485a1.435,1.435,0,0,1-1.437,1.437h-.291a1.435,1.435,0,0,1-1.437-1.437l0-3.262-3.318,0v2.463a3.827,3.827,0,0,0,3.828,3.828h2.051a3.827,3.827,0,0,0,3.828-3.828V576.725l-3.219,0v16.755Zm24.523-3.262,0,2.9a1.467,1.467,0,0,1-.109.55,1.44,1.44,0,0,1-.778.778,1.443,1.443,0,0,1-.55.109h-.291a1.435,1.435,0,0,1-1.437-1.437V576.731l-3.219,0V596.1h9.483l0-5.88-3.1,0Zm-9.07-2.9a3.144,3.144,0,0,0-.68-1.006,2.665,2.665,0,0,0-.953-.609,3.133,3.133,0,0,0,.809-.56,2.772,2.772,0,0,0,.6-.814,2.347,2.347,0,0,0,.221-.995V579.81a3.108,3.108,0,0,0-3.11-3.11h-6.4v19.4h6.645a3.109,3.109,0,0,0,3.109-3.11c0-1.486,0-2.973,0-4.459a3.13,3.13,0,0,0-.244-1.208Zm-6.385-8.948,1.685-.006a1.436,1.436,0,0,1,1.437,1.437l.009,3.888a1.2,1.2,0,0,1-.737,1.1,1.25,1.25,0,0,1-.458.091l-1.938.007v-6.522Zm3.163,15.214a1.195,1.195,0,0,1-1.1.737l-2.06.007v-7.691l1.807-.006a1.435,1.435,0,0,1,1.437,1.437l.009,5.056a1.221,1.221,0,0,1-.09.459Z" transform="translate(-142.67 -568.216)" fill="#f5f5f5"/>
</svg>
