<svg id="XP-PEN" xmlns="http://www.w3.org/2000/svg" width="95.522" height="13.459" viewBox="0 0 95.522 13.459">
  <g id="Grupo_18819" data-name="Grupo 18819">
    <path id="Trazado_62416" data-name="Trazado 62416" d="M145.219,279.162h2.513v-4.441h8.648c2.727,0,5.064-1.578,5.064-4.5s-2.357-4.422-5.064-4.422H145.219l.019,2.123h11.2a2.3,2.3,0,1,1-.039,4.6h-9.72c-.993,0-1.48.214-1.48,1.286v5.357Z" transform="translate(-127.592 -265.742)" fill-rule="evenodd"/>
    <path id="Trazado_62417" data-name="Trazado 62417" d="M274.7,279.162h2.513v-4.441h8.648c2.727,0,5.064-1.578,5.064-4.5s-2.357-4.422-5.064-4.422H274.7l.02,2.123h11.2a2.257,2.257,0,0,1,2.337,2.318,2.23,2.23,0,0,1-2.357,2.279h-9.72c-.993,0-1.48.214-1.48,1.286v5.357Z" transform="translate(-231.867 -265.742)" fill-rule="evenodd"/>
    <path id="Trazado_62418" data-name="Trazado 62418" d="M244.072,300.5H239.3v2.065h4.772Z" transform="translate(-203.362 -293.683)" fill-rule="evenodd"/>
    <path id="Trazado_62419" data-name="Trazado 62419" d="M382.564,268.118V265.8H372.533c-4.48,0-6.233,2.221-6.233,6.623s1.519,6.739,6.1,6.739H382.6c0-.74-.039-1.5-.039-2.24H372.553c-2.318,0-3.643-.837-3.759-3.272v-.059h13.829c0-.7-.019-1.4-.019-2.123H368.832v-.058c.02-2.24,1.266-3.272,3.467-3.272h10.265Z" transform="translate(-305.625 -265.742)" fill-rule="evenodd"/>
    <path id="Trazado_62420" data-name="Trazado 62420" d="M475.227,279.162V265.8h-2.474V276.65h-.058a2.332,2.332,0,0,1-2.045-.643c-2.065-2.162-3.428-5.3-5.3-7.694a5.626,5.626,0,0,0-5.259-2.513H458.3v13.362h2.532v-10.85h.058c1.344,0,1.558.175,2.357,1.247.915,1.227,1.734,2.552,2.571,3.837a22.953,22.953,0,0,0,3.545,4.538,5.075,5.075,0,0,0,3.681,1.266l2.182-.039Z" transform="translate(-379.705 -265.742)" fill-rule="evenodd"/>
    <path id="Trazado_62421" data-name="Trazado 62421" d="M70.636,265.5l-3.409.058-4.519,4.986-4.519-4.986H54.8l6.369,6.662-6.272,6.7h3.214l4.6-5.1,4.6,5.1H70.48l-6.272-6.7Z" transform="translate(-54.8 -265.5)" fill-rule="evenodd"/>
  </g>
</svg>
