<svg id="amd_logo" xmlns="http://www.w3.org/2000/svg" width="80.226" height="19.134" viewBox="0 0 80.226 19.134">
  <path id="amd_logo-2" data-name="amd_logo" d="M18.842,17.862H14.392l-1.361-3.283H5.616l-1.24,3.283H0L6.685,1.281h4.79ZM9.141,5.243,6.71,11.686h5.106ZM35,1.281h3.6V17.862H34.469V7.505L30,12.708h-.632l-4.473-5.2V17.862H20.757V1.281h3.6l5.324,6.151Zm14.071,0c6.053,0,9.165,3.768,9.165,8.314,0,4.765-3.014,8.267-9.627,8.267H41.757V1.281ZM45.89,14.823h2.7c4.157,0,5.4-2.821,5.4-5.252,0-2.845-1.532-5.251-5.446-5.251H45.89v10.5ZM66.464,5.213,61.252,0H80.226V18.974l-5.212-5.212V5.213Zm-.006,1.045-5.366,5.366v7.511H68.6l5.366-5.366h-7.51Z"/>
</svg>
