<svg id="logo_Mi_color" data-name="logo Mi_color" xmlns="http://www.w3.org/2000/svg" width="44.509" height="44.554" viewBox="0 0 44.509 44.554">
  <path id="Trazado_62444" data-name="Trazado 62444" d="M0,43.013V1.519A.526.526,0,0,0,.045,1.34,1.685,1.685,0,0,1,1.318.067C1.362.045,1.429.022,1.474,0H42.991c.067.022.112.045.179.067a1.627,1.627,0,0,1,1.273,1.251c.022.112.045.246.067.357v41.2a.652.652,0,0,0-.045.2,1.667,1.667,0,0,1-1.273,1.407c-.089.022-.2.045-.29.067H1.63a.526.526,0,0,0-.179-.045A1.6,1.6,0,0,1,.089,43.3,2.075,2.075,0,0,1,0,43.013ZM9.313,22.266v7.7c0,.514.067.581.581.581h2.97c.491,0,.558-.067.558-.558V17.844c0-.313.067-.38.335-.38h7.571a2.377,2.377,0,0,1,2.434,1.764,3.749,3.749,0,0,1,.156,1.117c.022,3.238,0,6.5,0,9.737,0,.38.089.469.469.469h3.171c.357,0,.469-.089.469-.469v-11.1a4.758,4.758,0,0,0-.715-2.792,4.857,4.857,0,0,0-4.243-2.233H9.849c-.469,0-.536.067-.536.536,0,2.613,0,5.181,0,7.772ZM35.2,22.244V14.427c0-.357-.089-.447-.447-.447H31.579c-.38,0-.469.089-.469.469V30.06c0,.4.089.491.491.491h3.1c.424,0,.491-.067.491-.491.022-2.613.022-5.2,0-7.817Zm-18.67,3.194V30.1c0,.335.089.424.424.424h3.417c.335,0,.424-.112.424-.424V20.77c0-.335-.089-.424-.424-.424H17c-.4,0-.469.067-.469.469Q16.526,23.126,16.526,25.437Z" fill="#f60"/>
  <path id="Trazado_62445" data-name="Trazado 62445" d="M41.7,70.885v-7.75c0-.469.067-.536.536-.536H55.457A4.831,4.831,0,0,1,59.7,64.833a4.675,4.675,0,0,1,.715,2.792v11.1c0,.38-.089.469-.469.469H56.775c-.38,0-.469-.089-.469-.469V68.987a3.748,3.748,0,0,0-.156-1.117,2.424,2.424,0,0,0-2.434-1.764c-2.524-.022-5.047,0-7.571,0-.268,0-.335.067-.335.38V78.635c0,.491-.067.558-.558.558h-2.97c-.536,0-.581-.067-.581-.581,0-2.591,0-5.159,0-7.727Z" transform="translate(-32.387 -48.62)" fill="#f5f5f5"/>
  <path id="Trazado_62446" data-name="Trazado 62446" d="M143.387,70.863V78.68c0,.424-.067.491-.491.491h-3.1c-.4,0-.491-.089-.491-.491V63.069c0-.4.089-.469.469-.469h3.171c.357,0,.447.089.447.447v7.817Z" transform="translate(-108.19 -48.62)" fill="#f5f5f5"/>
  <path id="Trazado_62447" data-name="Trazado 62447" d="M74,96.192V91.569c0-.4.067-.469.469-.469h3.372c.335,0,.424.089.424.424v9.335c0,.335-.089.424-.424.424H74.424c-.313,0-.424-.112-.424-.424C74,99.318,74,97.755,74,96.192Z" transform="translate(-57.474 -70.755)" fill="#f5f5f5"/>
</svg>
