<svg id="seagate_logo_color" xmlns="http://www.w3.org/2000/svg" width="56.244" height="46.415" viewBox="0 0 56.244 46.415">
  <path id="Trazado_62464" data-name="Trazado 62464" d="M284.229,571.828c-.07-.09-.17-.07-.26-.09a2.922,2.922,0,0,1-2.322-2.352,3.208,3.208,0,0,1,.541-2.663,2.888,2.888,0,0,1,2.2-1.191,4.022,4.022,0,0,1,1.381.1,2.444,2.444,0,0,1,1.151.661c-.18.2-.36.4-.53.581-.1.02-.13-.03-.17-.07a2.3,2.3,0,0,0-1.512-.52,2.145,2.145,0,0,0-1.531.57,2.173,2.173,0,0,0-.661,1.141,2.438,2.438,0,0,0,.31,2,2.26,2.26,0,0,0,2.182,1.031,3.266,3.266,0,0,0,.871-.16,1.314,1.314,0,0,0,.34-.16v-1.642h-1.3a3.6,3.6,0,0,1-.01-.731,15.792,15.792,0,0,1,2.112-.03c.05.18.07,2.252.03,2.933a1.655,1.655,0,0,1-.461.23,5.824,5.824,0,0,1-1.091.28c-.04.01-.1-.01-.12.05C285,571.828,284.609,571.828,284.229,571.828Z" transform="translate(-255.992 -525.413)" fill="#707070"/>
  <path id="Trazado_62465" data-name="Trazado 62465" d="M551.757,573.119c-.06,0-.11-.01-.17-.01h-3.824c-.04-.2-.05-5.675-.02-5.966.17-.04,3.483-.06,3.854-.01.02.23.01.47.01.7a.361.361,0,0,1-.26.05h-2.523a.846.846,0,0,0-.27.02v1.752c.32.01.631,0,.941,0h1.882a4.818,4.818,0,0,1,.01.761c-.951.02-1.882,0-2.823.02V572.3c.08.08.18.04.27.04h2.613c.1,0,.21.01.31.01Z" transform="translate(-495.513 -526.844)" fill="#707070"/>
  <path id="Trazado_62466" data-name="Trazado 62466" d="M27.722,571.807a2.3,2.3,0,0,0-.44-.09,2.2,2.2,0,0,1-1.021-.54.686.686,0,0,1-.11-.13.358.358,0,0,1-.05-.09c.21-.18.42-.37.631-.54.08,0,.11.06.14.1a1.518,1.518,0,0,0,1.9.3.892.892,0,0,0,.45-.821.634.634,0,0,0-.28-.531,2.252,2.252,0,0,0-.6-.3c-.25-.08-.5-.16-.751-.25a2.011,2.011,0,0,1-1.031-.711,1.694,1.694,0,0,1,.25-2.2,2.038,2.038,0,0,1,1.241-.5,3.256,3.256,0,0,1,1.161.11,1.557,1.557,0,0,1,.811.561c-.21.19-.42.39-.621.57-.1,0-.12-.07-.16-.11a1.2,1.2,0,0,0-.861-.37,1.659,1.659,0,0,0-.7.1.9.9,0,0,0-.531,1.021.774.774,0,0,0,.26.42,2.391,2.391,0,0,0,.841.39,4.28,4.28,0,0,1,1.051.391,1.4,1.4,0,0,1,.741.981,1.8,1.8,0,0,1-1.211,2.092,4.631,4.631,0,0,0-.5.14C28.132,571.807,27.932,571.807,27.722,571.807Z" transform="translate(-26.1 -525.393)" fill="#707070"/>
  <path id="Trazado_62467" data-name="Trazado 62467" d="M136.68,198.412c-.41-1.552-.811-3.093-1.221-4.645.13-.06.26-.12.38-.18.771-.39,1.571-.721,2.352-1.081a30.556,30.556,0,0,0,5.465-3.283,32.254,32.254,0,0,0,4.224-3.7,18.123,18.123,0,0,0,2.643-3.463,11.834,11.834,0,0,0,1.411-3.854,7.482,7.482,0,0,0-.651-4.725,7.944,7.944,0,0,0-3.553-3.583,9.643,9.643,0,0,0-3.353-1.011,11.812,11.812,0,0,0-2.593-.02,15.2,15.2,0,0,0-4.034,1.011,33.8,33.8,0,0,0-5.926,3.043,22.435,22.435,0,0,0-1.922,1.311,8.22,8.22,0,0,0-1.261,1.241,2.568,2.568,0,0,0-.52,1.121,1.064,1.064,0,0,0,1.041,1.291,2.07,2.07,0,0,0,.821-.12,9.916,9.916,0,0,0,1.481-.681c.9-.48,1.742-1.041,2.6-1.592,1.041-.661,2.082-1.331,3.173-1.892A10.921,10.921,0,0,1,140,172.577a5.825,5.825,0,0,1,3.664.36,3.956,3.956,0,0,1,2.322,2.933,4.234,4.234,0,0,1-.27,2.382,6.994,6.994,0,0,1-1.371,2.182,15.305,15.305,0,0,1-3.634,3.033c-1.421.851-2.843,1.7-4.294,2.492a25.4,25.4,0,0,1-4.574,1.912c-.761.24-1.521.48-2.312.651a12.862,12.862,0,0,1-3.213.3,8.588,8.588,0,0,1-3.413-.781,6.372,6.372,0,0,1-3.543-4.294,8.219,8.219,0,0,1-.27-2.212,11.55,11.55,0,0,1,.831-4.064,16.144,16.144,0,0,1,2.142-3.714,23.1,23.1,0,0,1,3.764-3.894,38.815,38.815,0,0,1,4.985-3.553c.821-.49,1.662-.931,2.5-1.381a.3.3,0,0,1,.09-.03c.21.44.43.881.641,1.321-.07.11-.17.13-.25.18-1,.53-2,1.071-2.973,1.672a29.7,29.7,0,0,0-5.836,4.7,13.053,13.053,0,0,0-2.753,4.274,7.79,7.79,0,0,0-.551,2.9,6.215,6.215,0,0,0,.34,2.052,4.566,4.566,0,0,0,2.022,2.452,5.945,5.945,0,0,0,2.562.791,10.631,10.631,0,0,0,4.154-.561,29.33,29.33,0,0,0,5.675-2.512c1.041-.591,2.082-1.2,3.063-1.882a11.693,11.693,0,0,0,1.922-1.662,3.391,3.391,0,0,0,.691-1.031,1.823,1.823,0,0,0,.13-1.171,1.508,1.508,0,0,0-1.211-1.161,2.636,2.636,0,0,0-1.471.07,9.136,9.136,0,0,0-1.531.681c-.871.46-1.7.981-2.532,1.511-1.1.711-2.212,1.421-3.373,2.032a11.278,11.278,0,0,1-2.3.951,5.127,5.127,0,0,1-1.952.17,2.663,2.663,0,0,1-2.4-2.232,3.635,3.635,0,0,1,.11-1.572,6.018,6.018,0,0,1,1.311-2.372,13.032,13.032,0,0,1,2.643-2.332,42.717,42.717,0,0,1,5.936-3.433,25.657,25.657,0,0,1,4.725-1.722,18.365,18.365,0,0,1,2.863-.47,16.317,16.317,0,0,1,2.212-.03A12.991,12.991,0,0,1,152.2,168.8a10.72,10.72,0,0,1,4.074,5.415,10.284,10.284,0,0,1,.48,3.573,12.384,12.384,0,0,1-.651,3.523,17.942,17.942,0,0,1-3.013,5.535,28.346,28.346,0,0,1-3.4,3.613c-.831.761-1.672,1.521-2.562,2.212a40.964,40.964,0,0,1-4.644,3.073,36.761,36.761,0,0,1-4.795,2.262C137.341,198.132,137.031,198.272,136.68,198.412Z" transform="translate(-109.784 -164.9)" fill="#74bb51"/>
  <path id="Trazado_62468" data-name="Trazado 62468" d="M192.3,573.032c-.04.06-.07.06-.1.06h-.821c-.2-.491-.4-.981-.6-1.462-.2-.03-2.5-.04-2.853-.01-.19.471-.39.961-.591,1.452h-.911c-.01-.01-.01-.01-.01-.02a.035.035,0,0,0-.01-.02.358.358,0,0,1,.04-.11c.851-1.942,1.712-3.874,2.562-5.826a6.442,6.442,0,0,1,.761,0Q191.039,570.084,192.3,573.032Zm-4.074-2.172a20.016,20.016,0,0,0,2.192,0,28.51,28.51,0,0,0-1.081-2.693C188.962,569.068,188.592,569.959,188.222,570.86Z" transform="translate(-170.355 -526.827)" fill="#707070"/>
  <path id="Trazado_62469" data-name="Trazado 62469" d="M378.7,567.2h.741c.851,1.982,1.692,3.964,2.542,5.946a2.665,2.665,0,0,1-.951.02c-.2-.48-.39-.961-.591-1.451H377.6c-.2.48-.39.971-.591,1.461H376.1C376.13,572.976,378.392,567.8,378.7,567.2Zm.33,1.041c-.2.491-.4.931-.581,1.391s-.38.881-.54,1.351a14,14,0,0,0,2.222-.03C379.763,570.053,379.413,569.172,379.033,568.241Z" transform="translate(-341.066 -526.931)" fill="#707070"/>
  <path id="Trazado_62470" data-name="Trazado 62470" d="M113.882,572.474a4.1,4.1,0,0,1,0,.7c-.18.04-3.694.05-3.984.02-.05-.17-.06-5.505-.02-5.936.17-.05,3.363-.07,3.824-.02a1.86,1.86,0,0,1,.01.751h-3.023v1.762a3.972,3.972,0,0,0,.691.02H113.5v.761c-.31.01-.621,0-.931.01h-1.882v1.872c.08.08.18.04.27.04H113.6A.348.348,0,0,1,113.882,572.474Z" transform="translate(-101.47 -526.941)" fill="#707070"/>
  <path id="Trazado_62471" data-name="Trazado 62471" d="M462.232,567.971H460.32c-.03-.25-.01-.491-.02-.721l.03-.03c.01-.01.01-.01.02-.01.06,0,.11-.01.17-.01,1.461,0,2.923,0,4.394.01a.092.092,0,0,1,.05.03c.02.23.01.46.01.721H463.1a.419.419,0,0,0-.05.3v4.655a.5.5,0,0,1-.03.27h-.771a6.116,6.116,0,0,1-.01-.741v-3.684C462.232,568.5,462.232,568.251,462.232,567.971Z" transform="translate(-416.838 -526.931)" fill="#707070"/>
</svg>
