<svg id="intel-logo_color" xmlns="http://www.w3.org/2000/svg" width="67.469" height="44.496" viewBox="0 0 67.469 44.496">
  <g id="Grupo_18823" data-name="Grupo 18823">
    <path id="Trazado_62432" data-name="Trazado 62432" d="M190.921,138.574c-3.161-15.441-33.142-16.419-52.464-4.656v1.3c19.3-9.927,46.682-9.861,49.177,4.358.834,4.707-1.816,9.608-6.55,12.43V155.7c5.694-2.086,11.535-8.843,9.837-17.122M155.8,165.6c-13.331,1.231-27.225-.708-29.173-11.124-.955-5.136,1.39-10.584,4.494-13.97V138.7c-5.592,4.9-8.621,11.109-6.874,18.436,2.23,9.4,14.153,14.729,32.355,12.961,7.2-.7,16.629-3.02,23.188-6.619v-5.112c-5.952,3.545-15.792,6.478-23.99,7.237" transform="translate(-123.75 -125.935)" fill="#0068b5"/>
    <path id="Trazado_62433" data-name="Trazado 62433" d="M496.23,472.2h-3.494v15.567c0,1.825.883,3.413,3.494,3.665Zm-41.624,5.685h-3.5l0,10.17c0,1.831.886,3.416,3.506,3.665Zm-3.5-1.9h3.491v-3.314H451.1Zm24.437,15.573a3.733,3.733,0,0,1-4.022-3.908v-13.5h3.461v3.734h2.608v2.8h-2.608v6.757a1.076,1.076,0,0,0,1.2,1.231h1.411v2.891Zm9.194-11.04a2.662,2.662,0,0,0-2.482,1.435,3.51,3.51,0,0,0-.33,1.489h5.337c-.069-1.492-.744-2.924-2.524-2.924m-2.813,5.286a2.879,2.879,0,0,0,3.068,3.077,3.916,3.916,0,0,0,3.185-1.309l2.143,2.041a6.843,6.843,0,0,1-5.349,2.179c-3.317,0-6.493-1.807-6.493-7.084,0-4.512,2.777-7.063,6.418-7.063,3.7,0,5.826,2.984,5.826,6.9V485.8l-8.8.006m-17.905-5.121c1.018,0,1.441.5,1.441,1.318v9.581h3.464v-9.605a3.793,3.793,0,0,0-4.082-4.088l-7.156,0v13.7h3.464v-10.9h2.87Z" transform="translate(-441.274 -461.806)" fill="#0068b5"/>
  </g>
</svg>
