<svg id="logo_redragon_color" data-name="logo redragon_color" xmlns="http://www.w3.org/2000/svg" width="75.781" height="46.871" viewBox="0 0 75.781 46.871">
  <path id="logo_redragon_color-2" data-name="logo redragon_color" d="M46.772,4.52a31.611,31.611,0,0,1,2.655,10.473c.1,1.039.165,2.095.2,3.15.033.792,0,1.6,0,2.391a.457.457,0,0,1-.016.148c0,.033-.033.066-.066.165a9.572,9.572,0,0,0-1.3-3.529,8.647,8.647,0,0,0-2.54-2.7,1.561,1.561,0,0,0,.082.3,13.018,13.018,0,0,1,.693,2.193,10.119,10.119,0,0,1,.016,5.014,8.127,8.127,0,0,1-1.781,3.4l-.3.3a1.1,1.1,0,0,1,.017-.264c.066-.528.148-1.072.181-1.616a5.212,5.212,0,0,0-.3-2.243,3.694,3.694,0,0,0-.181-.363c-.033.132-.066.181-.082.247a10.339,10.339,0,0,1-2.556,4.6,13.514,13.514,0,0,1-4.684,3.216,1.508,1.508,0,0,0-.231.115.22.22,0,0,0,.148.049,30.287,30.287,0,0,0,3.661-.214,22.032,22.032,0,0,0,4.37-.973,13.512,13.512,0,0,0,4.255-2.243c.016-.016.066-.016.132-.049a5.948,5.948,0,0,1-1.336,3.414c.115-.049.148-.066.2-.082a7.762,7.762,0,0,0,3.265-2.919A9.027,9.027,0,0,0,52.61,22.4a.349.349,0,0,1,.082-.3c.082.1.148.165.214.247a6.438,6.438,0,0,1,.841,1.418,11.117,11.117,0,0,1,.907,3.562c.066.627.082,1.27.132,1.9.016,0,.016.016.033.016.049-.132.115-.247.165-.379a14.686,14.686,0,0,0,.957-4.6,24.53,24.53,0,0,0-.2-4.915c-.016-.1-.016-.214-.033-.363.132.066.214.1.3.148a9.034,9.034,0,0,1,1.484,1.006,12.528,12.528,0,0,1,2.49,2.87,21.328,21.328,0,0,1,2.54,5.789,1.452,1.452,0,0,0,.082.247.317.317,0,0,0,.066-.2c.017-1.369,0-2.738-.082-4.09a41.514,41.514,0,0,0-.643-5.179A30.411,30.411,0,0,0,59.619,12.4a22.085,22.085,0,0,0-8.526-9.532,19.315,19.315,0,0,0-6.729-2.7A2.8,2.8,0,0,0,43.9.1c.082.1.1.132.132.165A17.7,17.7,0,0,1,46.772,4.52ZM19.048,14.448c.247.495.462,1.023.693,1.534.148.346.28.676.445,1.006a3.662,3.662,0,0,0,1.253,1.4,2.146,2.146,0,0,0,.2.1c-.033-.132-.066-.2-.082-.28-.115-.462-.264-.907-.346-1.369a3.3,3.3,0,0,1,.066-1.5.527.527,0,0,1,.429-.412c.3-.049.594-.082.907-.132.1.247.181.462.28.66.1.214.2.429.313.66a1.009,1.009,0,0,0,.066-.1,4.731,4.731,0,0,1,.462-1.121.445.445,0,0,1,.346-.264,2.657,2.657,0,0,0,1.088-.462c.033-.033.082-.033.115-.066a5.535,5.535,0,0,0,.429.825,5.675,5.675,0,0,1,.181-.676c.181-.445.4-.891.594-1.319a.7.7,0,0,1,.874-.346v.3a15.645,15.645,0,0,0,.049,2.325,5.679,5.679,0,0,0,.726,2.424,2.052,2.052,0,0,1,.165.33,5.358,5.358,0,0,1,.478,1.946c.016.28-.016.313-.28.363-.2.033-.412.049-.627.066a1.411,1.411,0,0,1-.264,0,.775.775,0,0,0,.181.165,2.107,2.107,0,0,1,.627.693.277.277,0,0,1-.033.363.93.93,0,0,1-.759.379,3.221,3.221,0,0,1-.561-.049,6,6,0,0,1-2.012-.775c-.082-.049-.165-.082-.231-.132a2.857,2.857,0,0,0,.363.511,6.266,6.266,0,0,0,1.352,1.2,2.239,2.239,0,0,0,1.517.379c.132-.016.264-.016.4-.033a1.773,1.773,0,0,0,1.748-1.7,3.409,3.409,0,0,0,.033-.709A6.691,6.691,0,0,1,30.362,19a6.27,6.27,0,0,1,.693-2.095A2.914,2.914,0,0,1,31.83,16c.049-.033.1-.082.165-.132a2.531,2.531,0,0,0-.627.2,3.816,3.816,0,0,0-.577.3,4.615,4.615,0,0,0-.544.4c-.165.132-.3.3-.478.462a9.718,9.718,0,0,1-.115-2.573,2.756,2.756,0,0,1,2.144-2.54,1.067,1.067,0,0,0,.214-.066,26.7,26.7,0,0,1,2.787-.511c1.039-.148,2.078-.28,3.117-.462a10.315,10.315,0,0,0,4.3-1.781c.082-.066.181-.132.313-.247-.957.181-1.847.363-2.738.495a14.878,14.878,0,0,1-2.754.247A16.641,16.641,0,0,0,43.44.925c-.016-.016-.033-.016-.066-.033-.049.082-.115.148-.165.231a24.985,24.985,0,0,1-3.727,4.387A13.5,13.5,0,0,1,36.415,7.7c-.082.049-.181.082-.264.132-.016-.016-.033-.033-.033-.049.033-.1.082-.181.115-.28.495-1.154,1.006-2.309,1.468-3.48A22,22,0,0,0,38.839.545a.828.828,0,0,0,.033-.2.561.561,0,0,0,.016-.165.72.72,0,0,0-.165.247,38.212,38.212,0,0,1-2.507,4.09A14.782,14.782,0,0,1,35.1,5.872a2.761,2.761,0,0,1-1.352.792c-.148.033-.313.049-.511.082.082-.363.165-.676.231-.99.066-.33.148-.643.214-.973l.2-.94a4.645,4.645,0,0,0,.148-.94c-.231.363-.429.742-.643,1.1a16.482,16.482,0,0,1-1.138,1.666,1.518,1.518,0,0,1-1.616.544,15.958,15.958,0,0,1-2.655-.808c-.1-.033-.214-.082-.33-.115a2.6,2.6,0,0,0-.2.247,21.626,21.626,0,0,1-3.876,3.694,11.145,11.145,0,0,1-2.787,1.517,5.768,5.768,0,0,1-2.787.379.619.619,0,0,0-.165.016.29.29,0,0,1,.016.1,16.443,16.443,0,0,0,1.2,3.2ZM27.9,7.6c-.247.808-.478,1.616-.742,2.474-.709.115-1.4.214-2.111.33-.016-.016-.016-.033-.033-.049C25.992,9.451,27,8.61,27.9,7.6ZM37.915,24.871a1.74,1.74,0,0,1,.214-.132c0,.165-.016.264-.016.379a7.515,7.515,0,0,1-.412,1.7,9.974,9.974,0,0,0,2.358-4.865,4.666,4.666,0,0,1,.4,2.325.579.579,0,0,0,.082-.132,14.907,14.907,0,0,0,.726-2.771,5.958,5.958,0,0,0-.033-2.292.448.448,0,0,1,0-.148l.049-.033c.313.33.627.676.957,1.039a4.8,4.8,0,0,0-.049-.528c-.115-.775-.181-1.55-.346-2.309a5.606,5.606,0,0,0-4.222-4.321,8.092,8.092,0,0,0-3.265-.2,6.9,6.9,0,0,0-2.078.544,3.51,3.51,0,0,0-1.023.66,1.727,1.727,0,0,0-.577,1.336.192.192,0,0,0,.033.115c.165-.214.3-.445.478-.643a2.061,2.061,0,0,1,1.352-.577,6.241,6.241,0,0,1,3.1.577,2.425,2.425,0,0,1,1.369,2.886,4.785,4.785,0,0,1-1.352,2.292,10.827,10.827,0,0,1-3.15,2.16c-.808.4-1.616.792-2.408,1.22a12.229,12.229,0,0,0-2.457,1.732,7.149,7.149,0,0,0-2.226,3.694c-.066.28-.115.577-.181.891H36.365a7.853,7.853,0,0,1-.214-1.006,3.114,3.114,0,0,1,.693-2.556c.33-.346.709-.693,1.072-1.039ZM70.422,27.79a.167.167,0,0,0,.115.1c.4.148.775.3,1.171.429a.3.3,0,0,1,.231.264c.033.247.082.511.1.759.033.742.066,1.5.066,2.243,0,1.583-.017,3.183-.033,4.783a4.661,4.661,0,0,1-.033.478,1.093,1.093,0,0,1-.33-.346c-1.072-1.732-2.127-3.463-3.2-5.212-.2-.346-.412-.676-.61-1.023-.511.016-1.006.049-1.484.049H62.753a.391.391,0,0,0-.313.066c.561.181,1.072.363,1.616.528v.511c-.016.61-.033,1.22-.049,1.847-.016.775-.033,1.55-.066,2.325-.033,1.187-.066,2.358-.115,3.546-.033.775-.082,1.55-.132,2.325-.017.247-.082.445-.346.495a1.145,1.145,0,0,0-.214.082c-.231.1-.445.214-.676.33,2.045.033,4.057.115,6.086.049-.495-.181-.99-.346-1.5-.528-.033-.429-.082-.841-.115-1.253-.049-.808-.082-1.633-.115-2.441-.016-.627-.049-1.253-.066-1.88-.017-.676-.017-1.352-.017-2.012,0-.115-.016-.247-.016-.363v-.891c.016,0,.033-.016.049-.016a2.686,2.686,0,0,1,.181.28c.511.891,1.023,1.765,1.534,2.655,1.583,2.787,3.15,5.574,4.75,8.345.478.825.973,1.649,1.451,2.474.033.049.082.1.148.181.016-.33.049-.61.049-.907.016-1.633.016-3.265.016-4.9.016-2.144.033-4.288.033-6.432,0-1.418.016-2.837.016-4.271,0-.511.016-1.023.033-1.534,0-.115.016-.247.016-.363a.2.2,0,0,1,.148-.214c.214-.082.429-.181.643-.28v-.28ZM43.341,41.067c-1.006-2.309-2.029-4.618-3.035-6.91-.181-.429-.379-.858-.577-1.319.445-.33.891-.643,1.385-.99a.846.846,0,0,0-.165-.016c-.4.016-.775.049-1.154.066l-1.9.1c-.561.033-1.138.082-1.7.115-.148.016-.231.066-.247.214-.016.082-.049.165-.066.247-.445,1.715-.874,3.447-1.336,5.162-.28,1.072-.61,2.144-.907,3.216-.033.1-.082.2-.115.313a2.708,2.708,0,0,1-1.006-.676c.247-.033.478-.066.709-.1A9.29,9.29,0,0,1,31.78,39.3a11.584,11.584,0,0,1-1.27-1.4c.165-.066.28-.1.412-.148a4.457,4.457,0,0,0,1.336-.61,2.39,2.39,0,0,0,.957-1.171,2.834,2.834,0,0,0,.132-1.336,2.767,2.767,0,0,0-.924-1.748,4.274,4.274,0,0,0-2.21-1.023,16.484,16.484,0,0,0-3.364-.214.311.311,0,0,0-.132.033c0,.033-.016.066-.016.1.016.973.049,1.946.066,2.919.016.891.049,1.8.066,2.7a1.443,1.443,0,0,1-.033.264c-.445.016-.429.016-.445-.4-.016-.4-.016-.792-.066-1.187a4.455,4.455,0,0,0-1.715-3,7.844,7.844,0,0,0-2.771-1.27,12.34,12.34,0,0,0-2.589-.3c-.429-.016-.874,0-1.3,0a2.19,2.19,0,0,0,0,.33c.033.412.1.825.132,1.237.066.94.148,1.88.2,2.82a16.017,16.017,0,0,1-.082,2.177l-.247,2.375c-.033.264-.082.511-.115.759a3.5,3.5,0,0,1-.561-1.2c-.033.033-.049.033-.049.049l-.049.1a1.325,1.325,0,0,1-1.072.825,2.549,2.549,0,0,1-.511.066H13.045c-.049,0-.082-.033-.115-.033a.051.051,0,0,1-.016-.033c-.049-.99-.082-1.979-.132-2.969a.173.173,0,0,1,.148-.2l.2-.049a5.212,5.212,0,0,1,3.282.28c.049.016.115.033.214.066-.016-.874-.033-1.732-.049-2.622a3.192,3.192,0,0,0-.528.528.62.62,0,0,1-.495.28,23.371,23.371,0,0,1-2.639.115.437.437,0,0,1-.165-.049c.016-.841.049-1.682.066-2.523,0-.165.033-.346.049-.511.016-.148.066-.231.214-.247.181-.033.363-.082.561-.115a5.008,5.008,0,0,1,1.484-.1,2.675,2.675,0,0,1,1.352.61c.148.115.3.247.462.379.066-.759.132-1.5.181-2.259h-.247l-.759.049c-.726.016-1.451.049-2.177.049-.858,0-1.715.1-2.589.016q-.495-.049-.99-.049c-.33-.016-.676,0-1.055,0,.132.1.231.181.33.247.247.2.478.4.709.61a.814.814,0,0,1,.28.594c0,.313.049.627.049.94-.016,1.616-.033,3.216-.049,4.832-.016.577-.049,1.154-.082,1.732a.839.839,0,0,1-.066.231c-1.6-1.253-3.134-2.54-4.651-3.876.115-.066.165-.1.231-.132.148-.066.3-.115.445-.181A3.976,3.976,0,0,0,8.428,35.2a3.33,3.33,0,0,0,.511-1.583,3.786,3.786,0,0,0-.528-2.457A4.77,4.77,0,0,0,6.3,29.44a14.031,14.031,0,0,0-2.16-.775,19.5,19.5,0,0,1-2.721-.907c-.049-.016-.115-.033-.2-.066,0,.066-.016.115-.016.165.049.495.1.99.148,1.5.066.825.132,1.633.181,2.457.066.973.115,1.963.181,2.952.016.247.033.511.033.759v1.138C1.138,36.581.577,36.5,0,36.416a8.392,8.392,0,0,0,1.715.577,37.048,37.048,0,0,1-.94,5.987c.726-.033,1.418-.115,2.095-.2.676-.066,1.352-.132,2.029-.264a5.413,5.413,0,0,0-.709-.544.468.468,0,0,1-.247-.462c.016-.858.033-1.7.049-2.556,0-.4,0-.775.016-1.171a4.051,4.051,0,0,1,.066-.61,4.919,4.919,0,0,0,.544-.066c.033.049.066.082.082.115a16.392,16.392,0,0,0,1.385,2.243q2.375,3.315,4.75,6.6a.3.3,0,0,0,.33.148q.693-.074,1.385-.1c.759-.049,1.517-.082,2.259-.132.066,0,.148-.033.264-.049A12.874,12.874,0,0,1,13,44.282a18.956,18.956,0,0,1-1.847-1.946c.181-.016.28-.033.4-.033.313-.016.627-.016.94-.016.28,0,.544-.033.825-.033.462,0,.907.033,1.369.033.676.016,1.352.016,2.012.016h.148c.313,0,.643,0,.957-.016.264,0,.511-.033.759-.049.759-.033,1.517-.016,2.276-.082A9.635,9.635,0,0,0,24,41.281a3.7,3.7,0,0,0,2.226-2.787c.033-.214.082-.445.115-.676.165.033.313.082.445.115a20.993,20.993,0,0,1-.808,4.271c1.27-.082,2.49-.2,3.727-.346a3.382,3.382,0,0,0-.594-.4.411.411,0,0,1-.247-.429c.016-.891.016-1.765.016-2.639,0-.115-.066-.28.1-.33.181-.049.214.132.264.231.445.891.891,1.781,1.319,2.672.2.4.379.808.561,1.22,1.946-.049,3.859-.313,5.805-.214-.346-.132-.693-.28-1.055-.412q.445-1.633.891-3.216a.388.388,0,0,1,.132-.033c.495-.049.99-.115,1.5-.148.429-.033.874-.049,1.3-.082.264-.016.264-.033.363.214.379.924.742,1.864,1.121,2.8a1.215,1.215,0,0,1,.066.231c-.214.115-.429.214-.627.33a2.246,2.246,0,0,0-.561.346h4.75c-.412-.214-.759-.4-1.121-.577a.743.743,0,0,1-.346-.363ZM4.568,36.5c-.165.049-.346.082-.544.132.016-.429.016-.808.033-1.187.016-.66.033-1.319.066-1.979.033-.759.066-1.534.1-2.292,0-.132.016-.264.016-.4,0-.313.115-.445.495-.4a1.421,1.421,0,0,1,.973.643,3.36,3.36,0,0,1,.627,1.5A5.573,5.573,0,0,1,6.284,34.8a2.306,2.306,0,0,1-1.715,1.7ZM24.1,38.626a3.206,3.206,0,0,1-1.781,1.633,6.447,6.447,0,0,1-1.93.445,2.19,2.19,0,0,1-.33,0c.082-.61.165-1.187.214-1.781s.082-1.2.082-1.814c0-.594-.049-1.187-.1-1.781s-.115-1.187-.181-1.8c.049,0,.1-.033.148-.016.561.1,1.121.181,1.682.28a1.768,1.768,0,0,1,1.451,1.517,3.625,3.625,0,0,1-.511,2.639c-.066.115-.132.214-.231.379a6.929,6.929,0,0,0,1.715-.643,1.731,1.731,0,0,1-.231.94Zm4.865-1.88a.221.221,0,0,1-.082-.017c-.016-1.154-.049-2.325-.066-3.48a1.159,1.159,0,0,1,.561-.066,2.981,2.981,0,0,1,1.237.363,1.355,1.355,0,0,1,.363,2.095,3.442,3.442,0,0,1-2.012,1.1Zm8.246.214a28.56,28.56,0,0,1,.924-3.447c.462,1.154.907,2.276,1.369,3.43C38.707,36.943,37.965,36.976,37.206,36.96ZM63.2,36.317a8.694,8.694,0,0,1-1.055,1.3.98.98,0,0,1-.016-.181,6.879,6.879,0,0,0-.643-2.87,4.322,4.322,0,0,0-1.748-2.012,4.755,4.755,0,0,0-3.48-.528,3.434,3.434,0,0,0-2.226,1.451,9.212,9.212,0,0,0-1.286,2.655,7.241,7.241,0,0,0-.3,2.655c.016.148.049.3.066.511.28-.4.528-.726.792-1.088.033.1.049.148.066.214.165.528.3,1.088.495,1.6a3.331,3.331,0,0,0,3.084,2.309c.462.033.924.033,1.385.033a3.572,3.572,0,0,0,3.183-2.029c.214-.429.462-.858.693-1.27a7.85,7.85,0,0,0,.94-2.49,1.075,1.075,0,0,0,.049-.264Zm-2.837,2.259a2.733,2.733,0,0,1-1.468,1.831,2.673,2.673,0,0,1-1.435.231,3.171,3.171,0,0,1-1.22-.363,2.89,2.89,0,0,1-1.352-1.781,4.99,4.99,0,0,1-.231-1.649,3.38,3.38,0,0,1,.33-1.682A2.368,2.368,0,0,1,56.9,33.777a2.948,2.948,0,0,1,2.375.61,3.1,3.1,0,0,1,.94,1.352,4.635,4.635,0,0,1,.148,2.837Zm-8.774-1.352c-.412.016-.825.049-1.253.049-.858.016-1.715.033-2.589.066H47.6a.19.19,0,0,0,.148.1c.478.181.94.33,1.418.528.363.148.726.33,1.072.511a.354.354,0,0,1,.231.313,7.751,7.751,0,0,1,.033,1.237.43.43,0,0,1-.28.379,4.711,4.711,0,0,1-2.474.313,2.96,2.96,0,0,1-2.424-1.781,3.426,3.426,0,0,1-.313-1.154c.214.132.4.247.577.346a1.5,1.5,0,0,0,.709.165l-.313-.313a3.1,3.1,0,0,1-.808-1.451,2.371,2.371,0,0,1,1.468-2.853,3.8,3.8,0,0,1,2.342-.165,5.543,5.543,0,0,1,2.391,1.237c.115.1.231.181.363.313a5.184,5.184,0,0,1,.825-2.325c-.1-.033-.148-.066-.2-.082-.775-.2-1.55-.412-2.342-.594a6.207,6.207,0,0,0-2.276-.165,5.592,5.592,0,0,0-2.853,1.154,4.9,4.9,0,0,0-1.864,3,6.152,6.152,0,0,0,.445,3.562,3.959,3.959,0,0,0,2,2.045,4.8,4.8,0,0,0,2.029.462c.973,0,1.946-.016,2.919-.033.627-.016,1.27-.033,1.9-.066a.612.612,0,0,0,.148-.033,22.811,22.811,0,0,1-.594-4.733,1.837,1.837,0,0,0-.28-.033Zm5.888-2.54a3.24,3.24,0,0,1-1.237,2.21,2.17,2.17,0,0,1,.759.792,3.2,3.2,0,0,1,.346,1.1q.049.445.1.94c.082-.478.132-.924.231-1.369a1.862,1.862,0,0,1,.973-1.468,3.817,3.817,0,0,1-1.171-2.21Z" transform="translate(0 -0.1)" fill="#e51b27" fill-rule="evenodd"/>
</svg>
