<svg id="Componente_261_1" data-name="Componente 261 – 1" xmlns="http://www.w3.org/2000/svg" width="124.23" height="15.895" viewBox="0 0 124.23 15.895">
  <g id="Grupo_18811" data-name="Grupo 18811" transform="translate(15.609)">
    <path id="Trazado_62408" data-name="Trazado 62408" d="M119.633,274.547c.19-5.282-2.427-7.828-7.567-7.947-6.425.452-7.329,4.045-7.567,7.947.167,5.711,2.974,7.995,7.567,7.947C117.325,282.495,119.919,279.9,119.633,274.547Zm-7.543,5.163c-2.261-.143-3.926-1.285-3.783-5.187,0-3.069,1.118-4.878,3.712-5.116,2.713.1,3.926,2,4.164,5.116C116.064,278.45,114.4,279.64,112.09,279.711Z" transform="translate(-104.5 -266.6)" fill="#e51b27"/>
  </g>
  <g id="Grupo_18812" data-name="Grupo 18812" transform="translate(45.781)">
    <path id="Trazado_62409" data-name="Trazado 62409" d="M246.433,274.547c.19-5.282-2.427-7.828-7.567-7.947-6.425.452-7.329,4.045-7.567,7.947.167,5.711,2.974,7.995,7.567,7.947C244.149,282.495,246.719,279.9,246.433,274.547Zm-7.519,5.163c-2.261-.143-3.926-1.285-3.783-5.187,0-3.069,1.118-4.878,3.712-5.116,2.713.1,3.926,2,4.164,5.116C242.864,278.45,241.2,279.64,238.914,279.711Z" transform="translate(-231.3 -266.6)" fill="#e51b27"/>
  </g>
  <g id="Grupo_18813" data-name="Grupo 18813" transform="translate(64.555 0.357)">
    <path id="Trazado_62410" data-name="Trazado 62410" d="M320.384,276.975c3.117-.309,3.141-4.259,3.141-4.259s.071-4.188-3.974-4.616H310.2v15.181h3.522V277.5H317.2l3.141,5.782h3.855Zm-1.975-2.4h-4.688v-3.522h4.688a1.788,1.788,0,0,1,1.737,1.689A1.846,1.846,0,0,1,318.409,274.572Z" transform="translate(-310.2 -268.1)" fill="#e51b27"/>
  </g>
  <g id="Grupo_18814" data-name="Grupo 18814" transform="translate(81.734 0.404)">
    <path id="Trazado_62411" data-name="Trazado 62411" d="M394.821,274.463v2.832h-8.947v6.091H382.4v-8.709c.072-1.261.1-1.38.119-1.571a5.516,5.516,0,0,1,5.687-4.806h6.615v2.808s-6.448-.071-6.52,0a3.344,3.344,0,0,0-2.427,3.117v.238Z" transform="translate(-382.4 -268.3)" fill="#e51b27"/>
  </g>
  <g id="Grupo_18815" data-name="Grupo 18815" transform="translate(33.883 0.404)">
    <path id="Trazado_62412" data-name="Trazado 62412" d="M191.841,280.578v2.808h-5.116a5.259,5.259,0,0,1-5.306-4.807c-.024-.167-.048-.309-.119-1.571V268.3h3.26v9.137a3.288,3.288,0,0,0,2.26,3.117C186.844,280.626,190.128,280.6,191.841,280.578Z" transform="translate(-181.3 -268.3)" fill="#e51b27"/>
  </g>
  <g id="Grupo_18816" data-name="Grupo 18816" transform="translate(113.689 0.404)">
    <path id="Trazado_62413" data-name="Trazado 62413" d="M527.241,280.578v2.808h-5.116a5.259,5.259,0,0,1-5.306-4.807c-.024-.167-.048-.309-.119-1.571V268.3h3.26v9.137a3.288,3.288,0,0,0,2.261,3.117C522.244,280.626,525.528,280.6,527.241,280.578Z" transform="translate(-516.7 -268.3)" fill="#e51b27"/>
  </g>
  <g id="Grupo_18817" data-name="Grupo 18817" transform="translate(0 0.381)">
    <path id="Trazado_62414" data-name="Trazado 62414" d="M51.464,268.2v2.784H45.3c-1.547.119-2.4,1.451-2.594,3.022v4.045a2.543,2.543,0,0,0,2.356,2.5H51.44v2.808H43.873c-2.308-.166-4.83-2.76-4.973-5.592V274.2a6,6,0,0,1,5.425-5.949Z" transform="translate(-38.9 -268.2)" fill="#e51b27"/>
  </g>
  <g id="Grupo_18818" data-name="Grupo 18818" transform="translate(97.129 0.262)">
    <path id="Trazado_62415" data-name="Trazado 62415" d="M460.235,278.764V267.7h-3.26v11.064h0c-.167,1.19-1.332,1.547-2.879,1.594h-.714c-1.57.1-2.784-.571-3.022-1.594V267.7H447.1v11.064c.476,2.332,2,3.855,4.878,4.307h3.379c3.093-.238,4.616-1.761,4.878-4.307Z" transform="translate(-447.1 -267.7)" fill="#e51b27"/>
  </g>
</svg>
